<svg width="271" height="267" viewBox="0 0 271 267" fill="none" xmlns="http://www.w3.org/2000/svg">
<path d="M157.582 264.843C157.582 264.05 157.536 126.796 157.536 126.796C157.536 126.796 239.635 49.0917 240.291 48.5577C241.222 49.6562 255.884 71.0925 260.461 81.9556C265.298 93.4443 268.471 105.406 270.043 117.764C271.111 126.171 271.233 134.608 270.668 143.076C269.707 157.631 266.289 171.576 260.614 184.972C255.426 197.224 248.377 208.316 239.711 218.431C234.554 224.442 229.001 230.057 222.898 235.077C213.957 242.431 204.315 248.717 193.818 253.69C182.955 258.832 158.711 264.889 158.162 264.95C158.07 264.981 157.948 264.92 157.582 264.843Z" fill="#9DDB00"/>
<path d="M222.271 30.5542C212.964 39.1898 203.886 47.627 194.884 55.9727C192.321 54.3859 189.941 52.8602 187.515 51.426C177.339 45.3842 166.415 41.3258 154.728 39.3881C144.307 37.6488 133.856 37.6183 123.389 39.1593C110.299 41.0817 98.0319 45.3232 86.6653 52.0973C73.6509 59.848 62.8031 69.9482 54.3201 82.5354C47.5611 92.5594 42.8314 103.484 40.0241 115.232C37.705 124.905 37.0642 134.715 37.8118 144.632C38.9103 159.05 42.9382 172.583 49.987 185.216C50.0481 185.323 32.8075 202.03 23.882 210.345C22.4936 208.346 21.1967 206.576 20.0067 204.745C11.8136 192.158 6.18369 178.503 2.99494 163.841C0.813161 153.847 -0.0717659 143.747 0.00452002 133.525C0.11132 119.381 2.61352 105.681 7.12964 92.3153C12.9731 75.0441 22.0206 59.5886 34.1196 45.9334C47.2865 31.0577 63.0777 19.7674 81.2032 11.6963C90.8152 7.42433 100.824 4.35764 111.153 2.38946C115.257 1.61135 134.069 -0.143224 139.318 0.00934779C145.741 0.177177 152.119 0.741696 158.466 1.71816C170.549 3.57953 182.084 7.18022 193.176 12.2609C202.467 16.5176 211.042 21.9644 219.174 28.1436C220.105 28.8607 221.066 29.6235 222.271 30.5542Z" fill="#9DDB00"/>
<path d="M139.336 266.568L117.778 266.156L117.747 162.469C117.747 162.469 139.275 142.1 139.336 142.131C139.367 142.161 139.336 266.568 139.336 266.568Z" fill="#9DDB00"/>
<path d="M99.0085 179.281V262.386L77.2975 254.315L77.5722 199.496L99.0085 179.281Z" fill="#9DDB00"/>
<path d="M57.4889 243.377L42.0486 231.324L57.9313 216.54L57.4889 243.377Z" fill="#9DDB00"/>
</svg>
